<svg aria-label="Arrow" role="img" data-test="cta-arrow" pointing="right" class="icon__Icon-sc-18q4eit-0 ArrowIcon__Arrow-fr0lgn-0 hQiTEl bsBLyV cta-arrow" viewBox="0 0 48 48" height="24" width="24" preserveAspectRatio="xMidYMid meet" version="1.1" xmlns="http://www.w3.org/2000/svg"><path d="M34.0146 26.5799C33.7321 26.3014 33.3514 26.1454 32.9547 26.1454C32.5579 26.1454 32.1772 26.3014 31.8947 26.5799L25.5046 32.9699V11.4C25.5046 11.0022 25.3466 10.6206 25.0653 10.3393C24.784 10.058 24.4025 9.89999 24.0046 9.89999C23.6068 9.89999 23.2253 10.058 22.944 10.3393C22.6627 10.6206 22.5046 11.0022 22.5046 11.4V33.01L16.1046 26.62C15.9661 26.4797 15.801 26.3683 15.619 26.2923C15.4371 26.2163 15.2418 26.1771 15.0446 26.1771C14.8474 26.1771 14.6522 26.2163 14.4702 26.2923C14.2883 26.3683 14.1232 26.4797 13.9846 26.62C13.7062 26.9025 13.55 27.2833 13.55 27.68C13.55 28.0767 13.7062 28.4574 13.9846 28.74L22.9046 37.65C22.9546 37.71 23.0346 37.73 23.0946 37.78L23.2546 37.89C23.3446 37.89 23.4246 37.98 23.5146 38.01C23.6479 38.052 23.7854 38.0787 23.9247 38.0899H24.0046C24.2469 38.089 24.4854 38.0294 24.6996 37.9162C24.9138 37.803 25.0974 37.6397 25.2346 37.44L34.0146 28.66C34.2859 28.3818 34.4377 28.0085 34.4377 27.62C34.4377 27.2314 34.2859 26.8582 34.0146 26.5799Z" role="presentation" class="fill__SVGFill-a20iqk-0 dDAjxy"></path></svg>